<svg viewBox="0 0 48 48" xmlns="http://www.w3.org/2000/svg" data-icon="firefly-spores">
  <path d="M28.3 18.6c1.6-1.7 2.3-3.6 2.1-5.7M31.1 18.9c1.9-1.3 3.1-2.9 3.6-4.9M33.8 20.6c2.1-.7 3.7-1.8 4.8-3.4" fill="none" stroke="#C0862B" stroke-width="2" stroke-linecap="round"/>
  <path d="M13.2 19.3c3.7-1.2 7.6-1.6 11.6-1.3 3.7.3 5.4 2.3 5.2 5.9-.2 3.8-1.3 7.4-3.2 10.7-1.9 3.3-5.5 4-10 2.1-3.9-1.7-5.5-4.5-5-8.6.1-3 .6-5.8 1.4-8.8z" fill="#C0862B" fill-opacity=".85" stroke="#B8873F" stroke-width="2" stroke-linejoin="round"/>
  <path d="M15.7 22.2c3.1-.9 6.2-1.1 9.3-.6" fill="none" stroke="#7A5C2E" stroke-width="1.5" stroke-linecap="round"/>
  <path d="M20.4 27.3c2.4-1.4 4.8-1.3 7 .3 1.9 1.4 2.7 3.2 2.5 5.4" fill="none" stroke="#E3B341" stroke-width="1.5" stroke-linecap="round"/>
  <path d="M13.6 36.4c-1.3 1.9-2.1 3.5-2.4 4.9M19.8 38.7c.4 1.5.4 2.9-.1 4.2M28.7 34.6c1.4 1.3 2.4 2.7 2.9 4.3" fill="none" stroke="#E3B341" stroke-width="1.5" stroke-linecap="round"/>
</svg>
