<svg viewBox="0 0 48 48" xmlns="http://www.w3.org/2000/svg" data-icon="rabbit">
  <path d="M17.9 15.1c1-2.9 2.4-4.6 4.2-5.2 1.7-.6 2.9.5 2.6 2.6M29.2 15.6c1.8-1 3.2-.7 4.1.8 1 1.6 1.2 3.6.8 5.8" fill="none" stroke="#7A5C2E" stroke-width="1.5" stroke-linecap="round"/>
  <path d="M24.3 14.7c4.9-.2 8.5 1.7 10.7 5.7 2.3 4.2 1.5 8.6-2.3 12.6-3 3.2-6.8 4.3-10.9 3.2-3.7-1-6.3-3.4-7.6-7.1-1.6-4.5-.5-8.7 3.1-12.3 1.8-1.8 4.1-2.4 7-2.1z" fill="#E3B341" fill-opacity=".8" stroke="#B8873F" stroke-width="2" stroke-linejoin="round"/>
  <path d="M24.2 28.1c1.5-.2 2.8.3 3.9 1.3" fill="none" stroke="#7A5C2E" stroke-width="1.2" stroke-linecap="round"/>
  <path d="M23.9 22.4c1.2-1.1 2.4-1 3.5.2M31.2 22.4c1.1-1 2.3-.9 3.4.3" fill="none" stroke="#7A5C2E" stroke-width="1.5" stroke-linecap="round"/>
  <path d="M27.5 31.1c.9 1.6 2 2.2 3.3 1.9" fill="none" stroke="#B5503F" stroke-width="1.5" stroke-linecap="round"/>
  <path d="M32.4 34c2.3 1.1 3.6.9 3.3-1.1" fill="none" stroke="#B8873F" stroke-width="2" stroke-linecap="round"/>
  <path d="M18.8 18.1c1.4-1.2 2.7-1.7 4-1.6" fill="none" stroke="#E3B341" stroke-width="1.3" stroke-linecap="round" opacity=".7"/>
</svg>
