<svg viewBox="0 0 48 48" xmlns="http://www.w3.org/2000/svg" data-icon="gnome">
  <path d="M24.6 6.2c2 4.3 4.1 8.4 6.3 12.3 2.3 4.2 5.1 6.5 9.2 7.1-2.9 1.9-6.3 2.7-10.4 2.2-4.5-.4-8-1.8-10.6-4.1 2-1.9 3.2-4.4 3.6-7.4.4-3.4 1.1-7.1 1.9-10.1z" fill="#E3B341" fill-opacity=".88" stroke="#B8873F" stroke-width="2" stroke-linejoin="round"/>
  <path d="M15.8 22.7c-2.3 4.1-2.6 8.7-.9 13.6 1.6 4.6 4.5 7.6 9.3 8.1 4.4.4 8-1.9 10.1-6.3 2-4.5 1.8-9.4-.5-13.9-5.9 2.3-12 1.6-18-1.5z" fill="#E3B341" fill-opacity=".52" stroke="#B8873F" stroke-width="2" stroke-linejoin="round"/>
  <path d="M21.9 21.4c1.4-1.3 3-1.4 4.6-.3.9 2.4.4 4.6-1.3 6.2-1.8 1.2-3.5.9-5.2-.8-.4-2.2.5-4 1.9-5.1z" fill="#C0862B" fill-opacity=".9" stroke="#B8873F" stroke-width="2" stroke-linejoin="round"/>
  <path d="M19.6 19.4c1.6-1.1 3.4-1.2 5.2-.3M17.3 30.6c4.2 1.6 9.1 1.5 13.6-.4M19.9 36.1c3 1.2 6.2 1 9.3-.7M25.2 12.2c1.7 3.4 3.5 6.6 5.9 9.5" fill="none" stroke="#7A5C2E" stroke-width="1.2" stroke-linecap="round" stroke-linejoin="round"/>
</svg>
