<svg viewBox="0 0 48 48" xmlns="http://www.w3.org/2000/svg" data-icon="wire">
  <path d="M24.3 13.9c6.2-.9 11 1.2 14.3 6.4 2.1 5.6.8 10.4-3.9 14.3-6.7 2.9-12.4 1.9-17.2-3-2.4-5.6-1.2-10.4 3.6-14.3 1-1.2 2-2.4 3.2-3.4z" fill="none" stroke="#B8873F" stroke-width="2" stroke-linecap="round" stroke-linejoin="round"/>
  <path d="M24.3 13.9c6.2-.9 11 1.2 14.3 6.4 2.1 5.6.8 10.4-3.9 14.3-6.7 2.9-12.4 1.9-17.2-3-2.4-5.6-1.2-10.4 3.6-14.3 1-1.2 2-2.4 3.2-3.4z" fill="none" stroke="#7A5C2E" stroke-width="2.8" stroke-linecap="round" stroke-linejoin="round"/>
  <path d="M21.6 20.1c4.3-.6 7.6 1 9.8 4.6 1.3 3.9.1 7-3.6 9.4-4.4 1.3-8.2-.1-11.3-4.2-1.1-4 .7-7.3 5.1-9.8z" fill="none" stroke="#B8873F" stroke-width="2" stroke-linecap="round" stroke-linejoin="round"/>
  <path d="M21.6 20.1c4.3-.6 7.6 1 9.8 4.6 1.3 3.9.1 7-3.6 9.4-4.4 1.3-8.2-.1-11.3-4.2-1.1-4 .7-7.3 5.1-9.8z" fill="none" stroke="#7A5C2E" stroke-width="2.6" stroke-linecap="round" stroke-linejoin="round"/>
  <path d="M17.4 33.4c-2.6 1.6-4.9 3.7-6.7 6.2M11.2 36.9l-1.7 2.8M13.1 36.2l1.1 3M35.4 15.2c1.7-2 3.6-3.4 5.6-4.3M36.4 13.3l3-.5M37.3 15.1l2.3 1.4" fill="none" stroke="#B5503F" stroke-width="1.8" stroke-linecap="round"/>
</svg>
